<svg xmlns="http://www.w3.org/2000/svg" width="1024" height="1024" viewBox="0 0 512 512" role="img" aria-label="Skeleton enemy sprite">
  <title>Skeleton Enemy</title>
  <defs>
    <radialGradient id="body" cx="45%" cy="35%" r="72%">
      <stop offset="0%" stop-color="#ffffff"/>
      <stop offset="55%" stop-color="#cfd8dc"/>
      <stop offset="100%" stop-color="#607d8b"/>
    </radialGradient>
    <radialGradient id="glow" cx="50%" cy="50%" r="62%">
      <stop offset="0%" stop-color="#cfd8dc" stop-opacity="0.3"/>
      <stop offset="100%" stop-color="#cfd8dc" stop-opacity="0"/>
    </radialGradient>
  </defs>
  <circle cx="256" cy="256" r="220" fill="url(#glow)"/>
  <g stroke-linecap="round" stroke-linejoin="round">
    <path d="M256 67 L416 224 L256 448 L96 224 Z" fill="url(#body)" stroke="#546e7a" stroke-width="16"/>
    <path d="M169 228 C169 172 209 134 256 134 C303 134 343 172 343 228 C343 267 316 294 294 307 L294 360 L218 360 L218 307 C196 294 169 267 169 228 Z" fill="#eceff1" stroke="#607d8b" stroke-width="12"/>
    <circle cx="217" cy="232" r="31" fill="#263238" opacity="0.9"/>
    <circle cx="295" cy="232" r="31" fill="#263238" opacity="0.9"/>
    <path d="M256 251 L232 301 L280 301 Z" fill="#455a64" opacity="0.78"/>
    <path d="M214 326 H298" stroke="#455a64" stroke-width="11"/>
    <path d="M231 317 V351 M256 317 V356 M281 317 V351" stroke="#78909c" stroke-width="7"/>
    <path d="M187 177 C222 146 290 146 325 177" stroke="#ffffff" stroke-width="11" fill="none" opacity="0.64"/>
    <path d="M143 224 L101 224 M411 224 L369 224" stroke="#ffffff" stroke-width="11" opacity="0.35"/>
    <path d="M210 386 L174 432 M302 386 L338 432" stroke="#78909c" stroke-width="13" opacity="0.68"/>
  </g>
</svg>
