<svg xmlns="http://www.w3.org/2000/svg" width="1024" height="1024" viewBox="0 0 512 512">
  <title>Slime Enemy</title>
  <defs><radialGradient id="g" cx="42%" cy="35%" r="70%"><stop offset="0%" stop-color="#e8f5e9"/><stop offset="45%" stop-color="#66bb6a"/><stop offset="100%" stop-color="#1b5e20"/></radialGradient></defs>
  <circle cx="256" cy="256" r="220" fill="#66bb6a" opacity="0.16"/>
  <path d="M103 301 C103 209 165 145 256 145 C347 145 409 209 409 301 C409 370 351 417 256 417 C161 417 103 370 103 301 Z" fill="url(#g)" stroke="#388e3c" stroke-width="10"/>
  <path d="M148 294 C184 329 328 329 364 294 C348 370 164 370 148 294 Z" fill="#2e7d32" opacity="0.32"/>
  <ellipse cx="199" cy="264" rx="18" ry="24" fill="#0b2d13" opacity="0.82"/>
  <ellipse cx="313" cy="264" rx="18" ry="24" fill="#0b2d13" opacity="0.82"/>
  <path d="M211 332 C240 350 272 350 301 332" fill="none" stroke="#0b2d13" stroke-width="9" stroke-linecap="round" opacity="0.58"/>
  <ellipse cx="207" cy="203" rx="48" ry="26" fill="#ffffff" opacity="0.38" transform="rotate(-22 207 203)"/>
  <circle cx="342" cy="196" r="15" fill="#ffffff" opacity="0.22"/>
</svg>