<svg xmlns="http://www.w3.org/2000/svg" width="1024" height="1024" viewBox="0 0 512 512" role="img" aria-label="Slime enemy sprite">
  <title>Slime Enemy</title>
  <defs>
    <radialGradient id="body" cx="42%" cy="35%" r="72%">
      <stop offset="0%" stop-color="#e8f5e9"/>
      <stop offset="46%" stop-color="#66bb6a"/>
      <stop offset="100%" stop-color="#1b5e20"/>
    </radialGradient>
    <radialGradient id="glow" cx="50%" cy="50%" r="62%">
      <stop offset="0%" stop-color="#66bb6a" stop-opacity="0.32"/>
      <stop offset="100%" stop-color="#66bb6a" stop-opacity="0"/>
    </radialGradient>
  </defs>
  <circle cx="256" cy="256" r="220" fill="url(#glow)"/>
  <g stroke-linecap="round" stroke-linejoin="round">
    <ellipse cx="256" cy="397" rx="139" ry="34" fill="#0b2d13" opacity="0.26"/>
    <path d="M87 310 C87 213 155 143 244 143 C286 143 318 156 342 182 C389 200 425 248 425 311 C425 385 361 428 256 428 C151 428 87 385 87 310 Z" fill="url(#body)" stroke="#1b5e20" stroke-width="16"/>
    <path d="M136 306 C178 345 334 345 376 306 C358 382 154 382 136 306 Z" fill="#2e7d32" opacity="0.38"/>
    <ellipse cx="198" cy="262" rx="22" ry="29" fill="#0b2d13" opacity="0.9"/>
    <ellipse cx="314" cy="262" rx="22" ry="29" fill="#0b2d13" opacity="0.9"/>
    <path d="M212 334 C240 354 272 354 300 334" fill="none" stroke="#0b2d13" stroke-width="12" opacity="0.62"/>
    <ellipse cx="204" cy="202" rx="55" ry="30" fill="#ffffff" opacity="0.4" transform="rotate(-22 204 202)"/>
    <circle cx="349" cy="195" r="18" fill="#ffffff" opacity="0.24"/>
    <path d="M99 322 C132 306 159 308 187 326" fill="none" stroke="#a5d6a7" stroke-width="10" opacity="0.5"/>
    <path d="M325 326 C356 307 389 308 421 327" fill="none" stroke="#a5d6a7" stroke-width="10" opacity="0.44"/>
  </g>
</svg>
