<svg xmlns="http://www.w3.org/2000/svg" width="1024" height="1024" viewBox="0 0 512 512">
  <title>Spider Enemy</title>
  <defs><radialGradient id="g" cx="45%" cy="35%" r="70%"><stop offset="0%" stop-color="#d7ccc8"/><stop offset="50%" stop-color="#8d6e63"/><stop offset="100%" stop-color="#3e2723"/></radialGradient></defs>
  <circle cx="256" cy="256" r="220" fill="#8d6e63" opacity="0.16"/>
  <g stroke="#4e342e" stroke-width="14" stroke-linecap="round" fill="none">
    <path d="M184 242 L102 199 L64 134"/>
    <path d="M183 279 L95 296 L45 352"/>
    <path d="M328 242 L410 199 L448 134"/>
    <path d="M329 279 L417 296 L467 352"/>
    <path d="M203 196 L157 114"/>
    <path d="M309 196 L355 114"/>
    <path d="M205 324 L168 410"/>
    <path d="M307 324 L344 410"/>
  </g>
  <path d="M256 116 L372 183 L372 317 L256 384 L140 317 L140 183 Z" fill="url(#g)" stroke="#4e342e" stroke-width="10"/>
  <circle cx="216" cy="241" r="16" fill="#fff8e1"/>
  <circle cx="296" cy="241" r="16" fill="#fff8e1"/>
  <circle cx="216" cy="241" r="8" fill="#2b140f"/>
  <circle cx="296" cy="241" r="8" fill="#2b140f"/>
  <path d="M218 310 C246 329 266 329 294 310" stroke="#2b140f" stroke-width="9" stroke-linecap="round" fill="none" opacity="0.62"/>
  <path d="M190 169 C225 146 287 146 322 169" stroke="#efebe9" stroke-width="9" stroke-linecap="round" fill="none" opacity="0.35"/>
</svg>