<svg xmlns="http://www.w3.org/2000/svg" width="1024" height="1024" viewBox="0 0 512 512" role="img" aria-label="Spider enemy sprite">
  <title>Spider Enemy</title>
  <defs>
    <radialGradient id="body" cx="45%" cy="35%" r="70%">
      <stop offset="0%" stop-color="#d7ccc8"/>
      <stop offset="50%" stop-color="#8d6e63"/>
      <stop offset="100%" stop-color="#3e2723"/>
    </radialGradient>
    <radialGradient id="glow" cx="50%" cy="50%" r="62%">
      <stop offset="0%" stop-color="#8d6e63" stop-opacity="0.3"/>
      <stop offset="100%" stop-color="#8d6e63" stop-opacity="0"/>
    </radialGradient>
  </defs>
  <circle cx="256" cy="256" r="220" fill="url(#glow)"/>
  <g stroke="#3e2723" stroke-width="20" stroke-linecap="round" stroke-linejoin="round" fill="none">
    <path d="M181 228 L88 177 L41 96"/>
    <path d="M174 257 L72 244 L19 289"/>
    <path d="M183 292 L83 325 L35 404"/>
    <path d="M331 228 L424 177 L471 96"/>
    <path d="M338 257 L440 244 L493 289"/>
    <path d="M329 292 L429 325 L477 404"/>
    <path d="M214 188 L168 92"/>
    <path d="M298 188 L344 92"/>
    <path d="M214 325 L174 424"/>
    <path d="M298 325 L338 424"/>
  </g>
  <path d="M256 98 L389 175 L389 329 L256 406 L123 329 L123 175 Z" fill="url(#body)" stroke="#3e2723" stroke-width="15"/>
  <path d="M184 176 C225 143 287 143 328 176" stroke="#efebe9" stroke-width="11" stroke-linecap="round" fill="none" opacity="0.38"/>
  <circle cx="216" cy="239" r="21" fill="#fff8e1"/>
  <circle cx="296" cy="239" r="21" fill="#fff8e1"/>
  <circle cx="216" cy="239" r="10" fill="#2b140f"/>
  <circle cx="296" cy="239" r="10" fill="#2b140f"/>
  <path d="M214 314 C244 336 268 336 298 314" stroke="#2b140f" stroke-width="12" stroke-linecap="round" fill="none" opacity="0.64"/>
  <path d="M256 121 V389" stroke="#efebe9" stroke-width="6" opacity="0.22"/>
  <path d="M137 189 L375 323" stroke="#efebe9" stroke-width="6" opacity="0.16"/>
  <path d="M375 189 L137 323" stroke="#efebe9" stroke-width="6" opacity="0.16"/>
</svg>
