<svg xmlns="http://www.w3.org/2000/svg" viewBox="0 0 128 128" role="img" aria-label="资源仓库">
  <defs>
    <linearGradient id="wall" x1="0" y1="0" x2="0" y2="1">
      <stop offset="0" stop-color="#26364f"/>
      <stop offset="1" stop-color="#101827"/>
    </linearGradient>
    <linearGradient id="roof" x1="0" y1="0" x2="1" y2="1">
      <stop offset="0" stop-color="#f9d36a"/>
      <stop offset="1" stop-color="#d18a26"/>
    </linearGradient>
    <radialGradient id="coinGlow" cx="50%" cy="45%" r="60%">
      <stop offset="0" stop-color="#fff7c2" stop-opacity="0.9"/>
      <stop offset="0.5" stop-color="#ffd54f" stop-opacity="0.42"/>
      <stop offset="1" stop-color="#ffd54f" stop-opacity="0"/>
    </radialGradient>
  </defs>

  <ellipse cx="64" cy="116" rx="48" ry="9" fill="#020712" opacity="0.45"/>
  <path d="M16 52 L64 18 L112 52 Z" fill="url(#roof)" stroke="#fff0a8" stroke-width="4" stroke-linejoin="round"/>
  <rect x="24" y="50" width="80" height="56" rx="8" fill="url(#wall)" stroke="#6fa8dc" stroke-width="3"/>

  <rect x="31" y="59" width="18" height="18" rx="3" fill="#17243a" stroke="#90caf9" stroke-width="2"/>
  <rect x="79" y="59" width="18" height="18" rx="3" fill="#17243a" stroke="#90caf9" stroke-width="2"/>
  <rect x="52" y="70" width="24" height="36" rx="5" fill="#0a1020" stroke="#ffd54f" stroke-width="2.5"/>

  <circle cx="64" cy="58" r="22" fill="url(#coinGlow)"/>
  <circle cx="64" cy="58" r="15" fill="#ffd54f" stroke="#fff3a0" stroke-width="3"/>
  <path d="M64 47 v22 M56 53 h14 a5 5 0 0 1 0 10 H58" fill="none" stroke="#6d4300" stroke-width="4" stroke-linecap="round" stroke-linejoin="round"/>

  <g stroke="#80deea" stroke-width="3" stroke-linecap="round">
    <path d="M36 88 h12"/>
    <path d="M80 88 h12"/>
    <path d="M43 95 h42"/>
  </g>

  <text x="64" y="122" text-anchor="middle" font-family="monospace" font-size="11" font-weight="700" fill="#bbdefb">资源仓库</text>
</svg>
