<svg xmlns="http://www.w3.org/2000/svg" viewBox="0 0 128 128" role="img" aria-label="指挥公告栏">
  <defs>
    <linearGradient id="wood" x1="0" y1="0" x2="0" y2="1">
      <stop offset="0" stop-color="#8d6e63"/>
      <stop offset="1" stop-color="#4e342e"/>
    </linearGradient>
    <linearGradient id="paper" x1="0" y1="0" x2="1" y2="1">
      <stop offset="0" stop-color="#fff8dc"/>
      <stop offset="1" stop-color="#d7c49a"/>
    </linearGradient>
    <radialGradient id="pinGlow" cx="50%" cy="35%" r="60%">
      <stop offset="0" stop-color="#e1f5fe" stop-opacity="0.9"/>
      <stop offset="0.6" stop-color="#81d4fa" stop-opacity="0.3"/>
      <stop offset="1" stop-color="#81d4fa" stop-opacity="0"/>
    </radialGradient>
  </defs>

  <ellipse cx="64" cy="116" rx="46" ry="8" fill="#020712" opacity="0.42"/>
  <g stroke="#5d4037" stroke-width="8" stroke-linecap="round">
    <path d="M28 40 v72"/>
    <path d="M100 40 v72"/>
  </g>
  <rect x="16" y="26" width="96" height="68" rx="8" fill="url(#wood)" stroke="#caa06a" stroke-width="4"/>
  <rect x="22" y="32" width="84" height="56" rx="5" fill="#2b1b16" opacity="0.35"/>

  <circle cx="64" cy="22" r="20" fill="url(#pinGlow)"/>
  <path d="M64 12 l5 10 11 2-8 8 2 11-10-5-10 5 2-11-8-8 11-2z" fill="#81d4fa" stroke="#e1f5fe" stroke-width="2"/>

  <g>
    <rect x="30" y="39" width="24" height="34" rx="3" fill="url(#paper)" stroke="#ffe0a3" stroke-width="2" transform="rotate(-4 42 56)"/>
    <rect x="57" y="36" width="24" height="38" rx="3" fill="url(#paper)" stroke="#ffe0a3" stroke-width="2" transform="rotate(2 69 55)"/>
    <rect x="80" y="43" width="22" height="30" rx="3" fill="url(#paper)" stroke="#ffe0a3" stroke-width="2" transform="rotate(5 91 58)"/>
  </g>

  <g stroke="#5d4037" stroke-width="2" stroke-linecap="round">
    <path d="M35 50 h13"/>
    <path d="M34 57 h14"/>
    <path d="M63 48 h12"/>
    <path d="M62 56 h13"/>
    <path d="M86 54 h10"/>
    <path d="M85 61 h11"/>
  </g>

  <g fill="#ffca28">
    <circle cx="36" cy="42" r="2.4"/>
    <circle cx="68" cy="39" r="2.4"/>
    <circle cx="90" cy="45" r="2.4"/>
  </g>

  <text x="64" y="123" text-anchor="middle" font-family="monospace" font-size="11" font-weight="700" fill="#e1f5fe">指挥公告栏</text>
</svg>
