<svg xmlns="http://www.w3.org/2000/svg" width="128" height="128" viewBox="0 0 128 128">
  <title>Mace</title>
  <g transform="rotate(-35 64 64)">
    <rect x="58" y="42" width="12" height="70" rx="5" fill="#6d4c41" stroke="#3e2723" stroke-width="4"/>
    <circle cx="64" cy="34" r="24" fill="#9e9e9e" stroke="#424242" stroke-width="5"/>
    <g fill="#eeeeee" stroke="#616161" stroke-width="2">
      <path d="M64 2 L71 18 H57 Z"/>
      <path d="M64 66 L57 50 H71 Z"/>
      <path d="M32 34 L48 27 V41 Z"/>
      <path d="M96 34 L80 41 V27 Z"/>
      <path d="M42 12 L56 21 L47 30 Z"/>
      <path d="M86 12 L81 30 L72 21 Z"/>
      <path d="M42 56 L47 38 L56 47 Z"/>
      <path d="M86 56 L72 47 L81 38 Z"/>
    </g>
    <circle cx="64" cy="34" r="9" fill="#bdbdbd" opacity="0.75"/>
  </g>
</svg>
