<svg xmlns="http://www.w3.org/2000/svg" width="1024" height="1024" viewBox="0 0 512 512" role="img" aria-label="Elf race sprite">
  <title>Elf Race</title>
  <defs>
    <radialGradient id="glow" cx="50%" cy="44%" r="60%">
      <stop offset="0%" stop-color="#f1fff2" stop-opacity="0.96"/>
      <stop offset="54%" stop-color="#81c784" stop-opacity="0.7"/>
      <stop offset="100%" stop-color="#0b1020" stop-opacity="0"/>
    </radialGradient>
    <linearGradient id="body" x1="0" y1="0" x2="1" y2="1">
      <stop offset="0%" stop-color="#c8f7c5"/>
      <stop offset="58%" stop-color="#81c784"/>
      <stop offset="100%" stop-color="#2e7d32"/>
    </linearGradient>
  </defs>
  <circle cx="256" cy="256" r="216" fill="url(#glow)"/>
  <g stroke-linecap="round" stroke-linejoin="round">
    <ellipse cx="256" cy="388" rx="75" ry="28" fill="#0b2d13" opacity="0.22"/>
    <path d="M176 207 L53 117 L112 271 Z" fill="#66bb6a" stroke="#f1fff2" stroke-width="13"/>
    <path d="M336 207 L459 117 L400 271 Z" fill="#66bb6a" stroke="#f1fff2" stroke-width="13"/>
    <path d="M197 325 C212 267 231 238 256 238 C281 238 300 267 315 325 L328 414 C291 433 221 433 184 414 Z" fill="url(#body)" stroke="#f1fff2" stroke-width="12"/>
    <circle cx="256" cy="178" r="57" fill="#f2dfc7" stroke="#f1fff2" stroke-width="12"/>
    <path d="M196 168 C222 99 304 101 328 168 C297 147 226 147 196 168 Z" fill="#1b5e20"/>
    <path d="M194 321 C149 315 116 294 94 260" fill="none" stroke="#c8e6c9" stroke-width="16" opacity="0.76"/>
    <path d="M318 321 C363 315 396 294 418 260" fill="none" stroke="#c8e6c9" stroke-width="16" opacity="0.76"/>
    <circle cx="235" cy="190" r="7" fill="#0d2a10"/>
    <circle cx="277" cy="190" r="7" fill="#0d2a10"/>
    <path d="M237 218 C249 226 263 226 275 218" fill="none" stroke="#0d2a10" stroke-width="6" opacity="0.58"/>
    <path d="M218 104 C191 134 163 149 130 146 C166 171 207 160 247 115 Z" fill="#a5d6a7" opacity="0.9"/>
  </g>
</svg>
