<svg xmlns="http://www.w3.org/2000/svg" width="1024" height="1024" viewBox="0 0 512 512" role="img" aria-label="Elf race sprite">
  <title>Elf Race</title>
  <defs>
    <radialGradient id="glow" cx="50%" cy="44%" r="60%">
      <stop offset="0%" stop-color="#f1fff2" stop-opacity="0.96"/>
      <stop offset="54%" stop-color="#81c784" stop-opacity="0.7"/>
      <stop offset="100%" stop-color="#0b1020" stop-opacity="0"/>
    </radialGradient>
    <linearGradient id="body" x1="0" y1="0" x2="1" y2="1">
      <stop offset="0%" stop-color="#c8f7c5"/>
      <stop offset="58%" stop-color="#81c784"/>
      <stop offset="100%" stop-color="#2e7d32"/>
    </linearGradient>
  </defs>
  <circle cx="256" cy="256" r="216" fill="url(#glow)"/>
  <g stroke-linecap="round" stroke-linejoin="round">
    <ellipse cx="256" cy="383" rx="72" ry="32" fill="#0b2d13" opacity="0.22"/>
    <path d="M176 210 L67 128 L119 265 Z" fill="#66bb6a" stroke="#f1fff2" stroke-width="10"/>
    <path d="M336 210 L445 128 L393 265 Z" fill="#66bb6a" stroke="#f1fff2" stroke-width="10"/>
    <path d="M199 326 C213 269 231 239 256 239 C281 239 299 269 313 326 L324 410 C289 428 223 428 188 410 Z" fill="url(#body)" stroke="#f1fff2" stroke-width="9"/>
    <circle cx="256" cy="179" r="55" fill="#f2dfc7" stroke="#f1fff2" stroke-width="9"/>
    <path d="M198 168 C224 101 302 103 326 168 C297 148 227 148 198 168 Z" fill="#1b5e20"/>
    <path d="M194 321 C153 315 122 296 101 264" fill="none" stroke="#c8e6c9" stroke-width="13" opacity="0.72"/>
    <path d="M318 321 C359 315 390 296 411 264" fill="none" stroke="#c8e6c9" stroke-width="13" opacity="0.72"/>
    <circle cx="235" cy="190" r="6" fill="#0d2a10"/>
    <circle cx="277" cy="190" r="6" fill="#0d2a10"/>
    <path d="M237 217 C249 225 263 225 275 217" fill="none" stroke="#0d2a10" stroke-width="5" opacity="0.55"/>
    <path d="M218 105 C193 134 166 147 135 145 C169 168 208 158 245 116 Z" fill="#a5d6a7" opacity="0.86"/>
  </g>
</svg>
