<svg xmlns="http://www.w3.org/2000/svg" width="1024" height="1024" viewBox="0 0 512 512" role="img" aria-label="Goblin race sprite">
  <title>Goblin Race</title>
  <defs>
    <radialGradient id="glow" cx="50%" cy="48%" r="58%">
      <stop offset="0%" stop-color="#f1f8e9" stop-opacity="0.95"/>
      <stop offset="55%" stop-color="#8bc34a" stop-opacity="0.7"/>
      <stop offset="100%" stop-color="#0b1020" stop-opacity="0"/>
    </radialGradient>
    <linearGradient id="body" x1="0" y1="0" x2="1" y2="1">
      <stop offset="0%" stop-color="#c5e86c"/>
      <stop offset="55%" stop-color="#8bc34a"/>
      <stop offset="100%" stop-color="#33691e"/>
    </linearGradient>
  </defs>
  <circle cx="256" cy="256" r="218" fill="url(#glow)"/>
  <g stroke-linecap="round" stroke-linejoin="round">
    <ellipse cx="256" cy="393" rx="92" ry="30" fill="#10270d" opacity="0.3"/>
    <path d="M174 233 L45 174 L101 294 Z" fill="#689f38" stroke="#e6ffcf" stroke-width="12"/>
    <path d="M338 233 L467 174 L411 294 Z" fill="#689f38" stroke="#e6ffcf" stroke-width="12"/>
    <ellipse cx="256" cy="278" rx="111" ry="91" fill="url(#body)" stroke="#e6ffcf" stroke-width="12"/>
    <path d="M185 208 C218 155 294 155 327 208 C292 190 220 190 185 208 Z" fill="#244d13" opacity="0.86"/>
    <path d="M178 333 C200 389 312 389 334 333 C303 356 209 356 178 333 Z" fill="#244d13" opacity="0.36"/>
    <path d="M201 252 L243 239" stroke="#153810" stroke-width="13"/>
    <path d="M311 252 L269 239" stroke="#153810" stroke-width="13"/>
    <circle cx="221" cy="272" r="11" fill="#fff59d"/>
    <circle cx="291" cy="272" r="11" fill="#fff59d"/>
    <path d="M215 324 C239 341 273 341 297 324" fill="none" stroke="#153810" stroke-width="10"/>
    <path d="M227 330 L211 366 L246 344 Z" fill="#f1f8e9" stroke="#153810" stroke-width="5"/>
    <path d="M285 330 L301 366 L266 344 Z" fill="#f1f8e9" stroke="#153810" stroke-width="5"/>
    <path d="M174 347 L123 399" stroke="#33691e" stroke-width="21" opacity="0.72"/>
    <path d="M338 347 L389 399" stroke="#33691e" stroke-width="21" opacity="0.72"/>
  </g>
</svg>
