<svg xmlns="http://www.w3.org/2000/svg" width="1024" height="1024" viewBox="0 0 512 512" role="img" aria-label="Goblin race sprite">
  <title>Goblin Race</title>
  <defs>
    <radialGradient id="glow" cx="50%" cy="48%" r="58%">
      <stop offset="0%" stop-color="#f1f8e9" stop-opacity="0.95"/>
      <stop offset="55%" stop-color="#8bc34a" stop-opacity="0.7"/>
      <stop offset="100%" stop-color="#0b1020" stop-opacity="0"/>
    </radialGradient>
    <linearGradient id="body" x1="0" y1="0" x2="1" y2="1">
      <stop offset="0%" stop-color="#c5e86c"/>
      <stop offset="55%" stop-color="#8bc34a"/>
      <stop offset="100%" stop-color="#33691e"/>
    </linearGradient>
  </defs>
  <circle cx="256" cy="256" r="218" fill="url(#glow)"/>
  <g stroke-linecap="round" stroke-linejoin="round">
    <ellipse cx="256" cy="389" rx="86" ry="34" fill="#10270d" opacity="0.28"/>
    <path d="M172 236 L55 181 L103 288 Z" fill="#689f38" stroke="#e6ffcf" stroke-width="9"/>
    <path d="M340 236 L457 181 L409 288 Z" fill="#689f38" stroke="#e6ffcf" stroke-width="9"/>
    <ellipse cx="256" cy="277" rx="108" ry="94" fill="url(#body)" stroke="#e6ffcf" stroke-width="9"/>
    <path d="M186 209 C219 158 293 158 326 209 C294 192 218 192 186 209 Z" fill="#244d13" opacity="0.82"/>
    <path d="M180 333 C199 386 313 386 332 333 C304 354 208 354 180 333 Z" fill="#244d13" opacity="0.34"/>
    <path d="M203 253 L242 240" stroke="#153810" stroke-width="11"/>
    <path d="M309 253 L270 240" stroke="#153810" stroke-width="11"/>
    <circle cx="221" cy="272" r="10" fill="#fff59d"/>
    <circle cx="291" cy="272" r="10" fill="#fff59d"/>
    <path d="M216 324 C239 340 273 340 296 324" fill="none" stroke="#153810" stroke-width="9"/>
    <path d="M228 330 L214 362 L244 344 Z" fill="#f1f8e9" stroke="#153810" stroke-width="4"/>
    <path d="M284 330 L298 362 L268 344 Z" fill="#f1f8e9" stroke="#153810" stroke-width="4"/>
    <path d="M176 345 L130 394" stroke="#33691e" stroke-width="18" opacity="0.7"/>
    <path d="M336 345 L382 394" stroke="#33691e" stroke-width="18" opacity="0.7"/>
  </g>
</svg>
