<svg xmlns="http://www.w3.org/2000/svg" width="1024" height="1024" viewBox="0 0 512 512" role="img" aria-label="Goblin race sprite">
  <title>Goblin Race</title>
  <defs>
    <radialGradient id="goblinGlow" cx="50%" cy="48%" r="58%">
      <stop offset="0%" stop-color="#dcedc8" stop-opacity="0.95"/>
      <stop offset="56%" stop-color="#8bc34a" stop-opacity="0.7"/>
      <stop offset="100%" stop-color="#0b1020" stop-opacity="0"/>
    </radialGradient>
    <linearGradient id="goblinBody" x1="0" x2="1" y1="0" y2="1">
      <stop offset="0%" stop-color="#c5e86c"/>
      <stop offset="55%" stop-color="#8bc34a"/>
      <stop offset="100%" stop-color="#33691e"/>
    </linearGradient>
    <filter id="shadow" x="-40%" y="-40%" width="180%" height="180%">
      <feDropShadow dx="0" dy="16" stdDeviation="18" flood-color="#000" flood-opacity="0.45"/>
    </filter>
  </defs>
  <circle cx="256" cy="256" r="220" fill="url(#goblinGlow)"/>
  <g filter="url(#shadow)">
    <path d="M162 228l-80-48 20 86z" fill="#689f38" stroke="#dcedc8" stroke-width="6" stroke-linejoin="round"/>
    <path d="M350 228l80-48-20 86z" fill="#689f38" stroke="#dcedc8" stroke-width="6" stroke-linejoin="round"/>
    <ellipse cx="256" cy="269" rx="124" ry="113" fill="url(#goblinBody)" stroke="#e6ffcf" stroke-width="8"/>
    <path d="M170 199c31-48 62-66 86-66s55 18 86 66c-33-16-62-23-86-23s-53 7-86 23z" fill="#33691e" opacity="0.48"/>
    <path d="M197 253l46-14" stroke="#153810" stroke-width="10" stroke-linecap="round"/>
    <path d="M315 253l-46-14" stroke="#153810" stroke-width="10" stroke-linecap="round"/>
    <circle cx="219" cy="272" r="9" fill="#fff59d"/>
    <circle cx="293" cy="272" r="9" fill="#fff59d"/>
    <path d="M212 324c31 24 57 24 88 0" fill="none" stroke="#153810" stroke-width="9" stroke-linecap="round"/>
    <path d="M226 329l-12 30 29-19zM286 329l12 30-29-19z" fill="#f1f8e9" stroke="#153810" stroke-width="4"/>
    <path d="M129 364c41 32 84 48 127 48s86-16 127-48" fill="none" stroke="#33691e" stroke-width="22" stroke-linecap="round" opacity="0.45"/>
  </g>
</svg>
