<svg xmlns="http://www.w3.org/2000/svg" width="1024" height="1024" viewBox="0 0 512 512" role="img" aria-label="Human race sprite">
  <title>Human Race</title>
  <defs>
    <radialGradient id="glow" cx="50%" cy="46%" r="58%">
      <stop offset="0%" stop-color="#e1f5fe" stop-opacity="0.95"/>
      <stop offset="54%" stop-color="#4fc3f7" stop-opacity="0.72"/>
      <stop offset="100%" stop-color="#0b1020" stop-opacity="0"/>
    </radialGradient>
    <linearGradient id="body" x1="0" y1="0" x2="1" y2="1">
      <stop offset="0%" stop-color="#9be7ff"/>
      <stop offset="55%" stop-color="#4fc3f7"/>
      <stop offset="100%" stop-color="#0277bd"/>
    </linearGradient>
  </defs>
  <circle cx="256" cy="256" r="218" fill="url(#glow)"/>
  <g stroke-linecap="round" stroke-linejoin="round">
    <ellipse cx="256" cy="389" rx="105" ry="40" fill="#0b1f33" opacity="0.3"/>
    <path d="M174 321 C190 267 219 242 256 242 C293 242 322 267 338 321 L350 397 C312 421 200 421 162 397 Z" fill="url(#body)" stroke="#e1f5fe" stroke-width="13"/>
    <path d="M184 331 L111 376" stroke="#e1f5fe" stroke-width="22"/>
    <path d="M328 331 L401 376" stroke="#e1f5fe" stroke-width="22"/>
    <path d="M217 399 L199 454" stroke="#e1f5fe" stroke-width="22"/>
    <path d="M295 399 L313 454" stroke="#e1f5fe" stroke-width="22"/>
    <circle cx="256" cy="184" r="67" fill="#f5d7bd" stroke="#e1f5fe" stroke-width="13"/>
    <path d="M195 177 C208 112 304 108 323 177 C292 156 224 156 195 177 Z" fill="#263238"/>
    <circle cx="232" cy="194" r="8" fill="#08233f"/>
    <circle cx="280" cy="194" r="8" fill="#08233f"/>
    <path d="M235 224 C249 235 263 235 277 224" fill="none" stroke="#08233f" stroke-width="7" opacity="0.66"/>
    <path d="M185 292 C224 319 288 319 327 292" fill="none" stroke="#ffffff" stroke-width="10" opacity="0.62"/>
    <circle cx="256" cy="315" r="20" fill="#ffffff" opacity="0.32"/>
  </g>
</svg>
