<svg xmlns="http://www.w3.org/2000/svg" width="1024" height="1024" viewBox="0 0 512 512">
  <title>Orc Race</title>
  <defs>
    <radialGradient id="g" cx="50%" cy="47%" r="60%">
      <stop offset="0%" stop-color="#ffe0b2" stop-opacity="0.96"/>
      <stop offset="55%" stop-color="#ff7043" stop-opacity="0.72"/>
      <stop offset="100%" stop-color="#0b1020" stop-opacity="0"/>
    </radialGradient>
    <linearGradient id="b" x1="0" x2="1" y1="0" y2="1">
      <stop offset="0%" stop-color="#ffab91"/>
      <stop offset="58%" stop-color="#ff7043"/>
      <stop offset="100%" stop-color="#bf360c"/>
    </linearGradient>
  </defs>
  <circle cx="256" cy="256" r="224" fill="url(#g)"/>
  <path d="M150 188l-44-72 86 29z" fill="#f5f5f5" stroke="#5d2014" stroke-width="6" stroke-linejoin="round"/>
  <path d="M362 188l44-72-86 29z" fill="#f5f5f5" stroke="#5d2014" stroke-width="6" stroke-linejoin="round"/>
  <ellipse cx="256" cy="276" rx="132" ry="124" fill="url(#b)" stroke="#ffe0b2" stroke-width="9"/>
  <path d="M155 218c42-62 160-62 202 0-34-14-68-21-101-21s-67 7-101 21z" fill="#5d2014" opacity="0.5"/>
  <path d="M191 264l46-20" stroke="#33120c" stroke-width="11" stroke-linecap="round"/>
  <path d="M321 264l-46-20" stroke="#33120c" stroke-width="11" stroke-linecap="round"/>
  <circle cx="217" cy="286" r="9" fill="#ffeb3b"/>
  <circle cx="295" cy="286" r="9" fill="#ffeb3b"/>
  <path d="M207 341c34 22 64 22 98 0" fill="none" stroke="#33120c" stroke-width="10" stroke-linecap="round"/>
  <path d="M221 348l-15 39 36-24zM291 348l15 39-36-24z" fill="#fff3e0" stroke="#33120c" stroke-width="5"/>
  <path d="M110 392c52 35 101 52 146 52s94-17 146-52" fill="none" stroke="#bf360c" stroke-width="28" stroke-linecap="round" opacity="0.5"/>
  <path d="M142 402l-25 42M370 402l25 42" stroke="#ffe0b2" stroke-width="12" stroke-linecap="round" opacity="0.72"/>
</svg>
