<svg xmlns="http://www.w3.org/2000/svg" width="1024" height="1024" viewBox="0 0 512 512" role="img" aria-label="Orc race sprite">
  <title>Orc Race</title>
  <defs>
    <radialGradient id="glow" cx="50%" cy="48%" r="60%">
      <stop offset="0%" stop-color="#ffe0b2" stop-opacity="0.96"/>
      <stop offset="55%" stop-color="#ff7043" stop-opacity="0.72"/>
      <stop offset="100%" stop-color="#0b1020" stop-opacity="0"/>
    </radialGradient>
    <linearGradient id="body" x1="0" y1="0" x2="1" y2="1">
      <stop offset="0%" stop-color="#ffab91"/>
      <stop offset="58%" stop-color="#ff7043"/>
      <stop offset="100%" stop-color="#bf360c"/>
    </linearGradient>
  </defs>
  <circle cx="256" cy="256" r="224" fill="url(#glow)"/>
  <g stroke-linecap="round" stroke-linejoin="round">
    <ellipse cx="256" cy="404" rx="132" ry="40" fill="#3a1209" opacity="0.34"/>
    <path d="M126 313 C145 253 191 229 256 229 C321 229 367 253 386 313 L402 418 C348 444 164 444 110 418 Z" fill="url(#body)" stroke="#ffe0b2" stroke-width="13"/>
    <path d="M139 304 L61 339 L84 404 L163 366 Z" fill="#bf360c" stroke="#ffe0b2" stroke-width="12"/>
    <path d="M373 304 L451 339 L428 404 L349 366 Z" fill="#bf360c" stroke="#ffe0b2" stroke-width="12"/>
    <path d="M144 181 L82 92 L207 136 Z" fill="#fff3e0" stroke="#5d2014" stroke-width="10"/>
    <path d="M368 181 L430 92 L305 136 Z" fill="#fff3e0" stroke="#5d2014" stroke-width="10"/>
    <ellipse cx="256" cy="224" rx="111" ry="87" fill="#ff8a65" stroke="#ffe0b2" stroke-width="13"/>
    <path d="M168 197 C210 139 302 139 344 197 C313 178 199 178 168 197 Z" fill="#5d2014" opacity="0.72"/>
    <path d="M191 229 L238 215" stroke="#33120c" stroke-width="14"/>
    <path d="M321 229 L274 215" stroke="#33120c" stroke-width="14"/>
    <circle cx="220" cy="253" r="11" fill="#ffeb3b"/>
    <circle cx="292" cy="253" r="11" fill="#ffeb3b"/>
    <path d="M207 309 C239 331 273 331 305 309" fill="none" stroke="#33120c" stroke-width="12"/>
    <path d="M222 315 L202 365 L248 335 Z" fill="#fff3e0" stroke="#33120c" stroke-width="6"/>
    <path d="M290 315 L310 365 L264 335 Z" fill="#fff3e0" stroke="#33120c" stroke-width="6"/>
    <path d="M160 358 C214 384 298 384 352 358" fill="none" stroke="#ffe0b2" stroke-width="11" opacity="0.48"/>
  </g>
</svg>
