<svg xmlns="http://www.w3.org/2000/svg" width="1024" height="1024" viewBox="0 0 512 512" role="img" aria-label="Orc race sprite">
  <title>Orc Race</title>
  <defs>
    <radialGradient id="glow" cx="50%" cy="48%" r="60%">
      <stop offset="0%" stop-color="#ffe0b2" stop-opacity="0.96"/>
      <stop offset="55%" stop-color="#ff7043" stop-opacity="0.72"/>
      <stop offset="100%" stop-color="#0b1020" stop-opacity="0"/>
    </radialGradient>
    <linearGradient id="body" x1="0" y1="0" x2="1" y2="1">
      <stop offset="0%" stop-color="#ffab91"/>
      <stop offset="58%" stop-color="#ff7043"/>
      <stop offset="100%" stop-color="#bf360c"/>
    </linearGradient>
  </defs>
  <circle cx="256" cy="256" r="224" fill="url(#glow)"/>
  <g stroke-linecap="round" stroke-linejoin="round">
    <ellipse cx="256" cy="400" rx="122" ry="42" fill="#3a1209" opacity="0.32"/>
    <path d="M135 315 C150 257 194 232 256 232 C318 232 362 257 377 315 L392 414 C340 438 172 438 120 414 Z" fill="url(#body)" stroke="#ffe0b2" stroke-width="10"/>
    <path d="M143 305 L71 340 L91 397 L158 363 Z" fill="#bf360c" stroke="#ffe0b2" stroke-width="9"/>
    <path d="M369 305 L441 340 L421 397 L354 363 Z" fill="#bf360c" stroke="#ffe0b2" stroke-width="9"/>
    <path d="M147 183 L90 103 L202 139 Z" fill="#fff3e0" stroke="#5d2014" stroke-width="8"/>
    <path d="M365 183 L422 103 L310 139 Z" fill="#fff3e0" stroke="#5d2014" stroke-width="8"/>
    <ellipse cx="256" cy="226" rx="106" ry="86" fill="#ff8a65" stroke="#ffe0b2" stroke-width="10"/>
    <path d="M170 198 C211 142 301 142 342 198 C312 179 200 179 170 198 Z" fill="#5d2014" opacity="0.68"/>
    <path d="M194 230 L237 216" stroke="#33120c" stroke-width="12"/>
    <path d="M318 230 L275 216" stroke="#33120c" stroke-width="12"/>
    <circle cx="220" cy="253" r="10" fill="#ffeb3b"/>
    <circle cx="292" cy="253" r="10" fill="#ffeb3b"/>
    <path d="M209 309 C240 329 272 329 303 309" fill="none" stroke="#33120c" stroke-width="10"/>
    <path d="M223 314 L205 360 L246 334 Z" fill="#fff3e0" stroke="#33120c" stroke-width="5"/>
    <path d="M289 314 L307 360 L266 334 Z" fill="#fff3e0" stroke="#33120c" stroke-width="5"/>
    <path d="M166 357 C215 380 297 380 346 357" fill="none" stroke="#ffe0b2" stroke-width="9" opacity="0.45"/>
  </g>
</svg>
