<svg xmlns="http://www.w3.org/2000/svg" width="1024" height="1024" viewBox="0 0 512 512" role="img" aria-label="Spirit race sprite">
  <title>Spirit Race</title>
  <defs>
    <radialGradient id="glow" cx="50%" cy="43%" r="62%">
      <stop offset="0%" stop-color="#ffffff" stop-opacity="0.94"/>
      <stop offset="48%" stop-color="#ce93d8" stop-opacity="0.68"/>
      <stop offset="100%" stop-color="#0b1020" stop-opacity="0"/>
    </radialGradient>
    <linearGradient id="body" x1="0" y1="0" x2="0" y2="1">
      <stop offset="0%" stop-color="#f8e8ff" stop-opacity="0.82"/>
      <stop offset="58%" stop-color="#ce93d8" stop-opacity="0.66"/>
      <stop offset="100%" stop-color="#6a1b9a" stop-opacity="0.18"/>
    </linearGradient>
  </defs>
  <circle cx="256" cy="256" r="224" fill="url(#glow)"/>
  <g stroke-linecap="round" stroke-linejoin="round">
    <ellipse cx="256" cy="403" rx="82" ry="23" fill="#6a1b9a" opacity="0.14"/>
    <path d="M164 362 C128 321 116 273 134 225 C154 170 201 136 256 136 C311 136 358 170 378 225 C396 273 384 321 348 362 C326 347 307 348 288 376 C270 348 242 348 224 376 C205 348 186 347 164 362 Z" fill="url(#body)" stroke="#f8e8ff" stroke-width="12" opacity="0.88"/>
    <path d="M181 198 C214 156 298 156 331 198" fill="none" stroke="#ffffff" stroke-width="11" opacity="0.65"/>
    <circle cx="226" cy="244" r="13" fill="#240631" opacity="0.72"/>
    <circle cx="286" cy="244" r="13" fill="#240631" opacity="0.72"/>
    <path d="M230 302 C250 316 262 316 282 302" fill="none" stroke="#240631" stroke-width="9" opacity="0.5"/>
    <path d="M126 326 C79 351 56 390 50 444" fill="none" stroke="#e1bee7" stroke-width="17" opacity="0.48"/>
    <path d="M386 326 C433 351 456 390 462 444" fill="none" stroke="#e1bee7" stroke-width="17" opacity="0.48"/>
    <path d="M228 78 C219 128 188 160 136 176 C195 186 246 155 284 88 Z" fill="#ffffff" opacity="0.43"/>
    <path d="M308 88 C336 129 371 151 415 155 C369 177 324 165 279 124 Z" fill="#ffffff" opacity="0.31"/>
    <circle cx="150" cy="132" r="9" fill="#f3e5f5" opacity="0.85"/>
    <circle cx="391" cy="219" r="7" fill="#f3e5f5" opacity="0.78"/>
    <circle cx="117" cy="270" r="6" fill="#f3e5f5" opacity="0.7"/>
  </g>
</svg>
