<svg xmlns="http://www.w3.org/2000/svg" width="512" height="512" viewBox="0 0 512 512" role="img" aria-label="Diamond arcane overload visual effect">
  <title>Diamond Arcane Overload</title>
  <defs>
    <radialGradient id="bg" cx="50%" cy="50%" r="64%">
      <stop offset="0%" stop-color="#ffffff" stop-opacity="0.9"/>
      <stop offset="46%" stop-color="#7e57c2" stop-opacity="0.62"/>
      <stop offset="100%" stop-color="#0b1020" stop-opacity="0"/>
    </radialGradient>
    <linearGradient id="ring" x1="0" y1="0" x2="1" y2="1">
      <stop offset="0%" stop-color="#ffffff"/>
      <stop offset="45%" stop-color="#b388ff"/>
      <stop offset="100%" stop-color="#40c4ff"/>
    </linearGradient>
  </defs>
  <circle cx="256" cy="256" r="236" fill="url(#bg)"/>
  <g fill="none" stroke-linecap="round" stroke-linejoin="round">
    <circle cx="256" cy="256" r="148" stroke="url(#ring)" stroke-width="13" stroke-dasharray="78 24"/>
    <circle cx="256" cy="256" r="98" stroke="#e1bee7" stroke-width="8" stroke-dasharray="18 16" opacity="0.75"/>
    <circle cx="256" cy="256" r="53" stroke="#ffffff" stroke-width="7" opacity="0.85"/>
    <path d="M256 83 L301 211 L437 211 L327 289 L371 418 L256 338 L141 418 L185 289 L75 211 L211 211 Z" stroke="#b388ff" stroke-width="8" fill="rgba(126,87,194,0.18)"/>
    <path d="M256 128 V384 M128 256 H384" stroke="#40c4ff" stroke-width="5" opacity="0.5"/>
  </g>
  <g fill="#ffffff">
    <circle cx="150" cy="156" r="8" opacity="0.9"/>
    <circle cx="367" cy="141" r="6" opacity="0.82"/>
    <circle cx="393" cy="329" r="9" opacity="0.72"/>
    <circle cx="116" cy="327" r="6" opacity="0.78"/>
    <circle cx="256" cy="256" r="18" opacity="0.92"/>
  </g>
</svg>
