<svg xmlns="http://www.w3.org/2000/svg" width="512" height="512" viewBox="0 0 512 512" role="img" aria-label="Diamond mace quake visual effect">
  <title>Diamond Mace Quake</title>
  <defs>
    <radialGradient id="bg" cx="50%" cy="52%" r="66%">
      <stop offset="0%" stop-color="#fff8e1" stop-opacity="0.9"/>
      <stop offset="48%" stop-color="#ffb74d" stop-opacity="0.62"/>
      <stop offset="100%" stop-color="#0b1020" stop-opacity="0"/>
    </radialGradient>
    <linearGradient id="crack" x1="0" y1="0" x2="1" y2="1">
      <stop offset="0%" stop-color="#fff3e0"/>
      <stop offset="100%" stop-color="#ff7043"/>
    </linearGradient>
  </defs>
  <circle cx="256" cy="256" r="236" fill="url(#bg)"/>
  <g fill="none" stroke-linecap="round" stroke-linejoin="round">
    <circle cx="256" cy="288" r="72" stroke="#fff3e0" stroke-width="13" opacity="0.9"/>
    <circle cx="256" cy="288" r="132" stroke="#ffcc80" stroke-width="10" opacity="0.62" stroke-dasharray="34 18"/>
    <circle cx="256" cy="288" r="188" stroke="#ff7043" stroke-width="8" opacity="0.4" stroke-dasharray="24 24"/>
    <path d="M256 103 L235 208 L270 208 L244 315 L322 178 L282 184 Z" fill="#fff3e0" stroke="#5d4037" stroke-width="9"/>
    <path d="M256 292 L214 356 L232 383 L183 445" stroke="url(#crack)" stroke-width="12"/>
    <path d="M256 292 L300 350 L286 379 L338 438" stroke="url(#crack)" stroke-width="12"/>
    <path d="M256 292 L257 374 L246 397 L258 456" stroke="#ff7043" stroke-width="10" opacity="0.82"/>
    <path d="M132 303 H380" stroke="#fff8e1" stroke-width="8" opacity="0.6"/>
  </g>
  <g fill="#fff3e0" opacity="0.85">
    <path d="M135 390 L162 374 L154 407 Z"/>
    <path d="M379 380 L407 401 L367 411 Z"/>
    <path d="M212 438 L239 421 L233 455 Z"/>
  </g>
</svg>
